<svg xmlns="http://www.w3.org/2000/svg" viewBox="0 0 420 200" fill="none" role="img" aria-label="Concordia Restaurant">
  <g transform="translate(118 18)" stroke="#8B1A2B" stroke-width="2.2" fill="none" stroke-linecap="round" stroke-linejoin="round">
    <path d="M4 38 L34 6 A38 38 0 0 1 72 38 Z"/>
    <circle cx="22" cy="28" r="3.5" fill="#8B1A2B" stroke="none"/>
    <circle cx="38" cy="22" r="3" fill="#8B1A2B" stroke="none"/>
    <path d="M30 14 C32 10 36 8 40 10" stroke-width="1.8"/>
  </g>
  <g transform="translate(188 20)" stroke="#d4a82a" stroke-width="2" fill="none" stroke-linecap="round">
    <ellipse cx="22" cy="30" rx="24" ry="10"/>
    <path d="M6 24 C10 10 18 4 22 4 C26 4 34 10 38 24"/>
    <path d="M10 20 C14 12 18 8 22 8"/>
    <path d="M14 16 C17 11 20 9 22 9"/>
    <path d="M22 2 C24 0 27 2 26 5" stroke="#2d5a3d" stroke-width="1.6"/>
  </g>
  <g transform="translate(278 18)" stroke="#2d5a3d" stroke-width="2.2" fill="none" stroke-linecap="round" stroke-linejoin="round">
    <path d="M8 38 L8 22 C8 10 22 4 34 10 C46 4 60 10 60 22 L60 38 Z"/>
    <path d="M14 38 L14 24 C14 16 24 12 34 14 C44 12 54 16 54 24 L54 38"/>
    <path d="M30 30 C28 24 28 20 30 18 C32 20 32 24 30 30Z" fill="#d4a82a" stroke="none"/>
  </g>
  <text x="210" y="118" text-anchor="middle" fill="#8B1A2B" font-family="Georgia, serif" font-size="58" font-style="italic" font-weight="600">Concordia</text>
  <text x="210" y="142" text-anchor="middle" fill="#2d5a3d" font-family="system-ui, sans-serif" font-size="13" font-weight="600" letter-spacing="6">RESTAURANT</text>
  <path d="M118 168 C150 162 178 174 210 166 C242 158 270 172 302 166" stroke="#2d5a3d" stroke-width="5" stroke-linecap="round" opacity="0.85"/>
  <path d="M168 168 C188 164 198 170 210 166" stroke="#f5f5f0" stroke-width="4" stroke-linecap="round"/>
  <path d="M228 166 C248 170 268 162 288 168" stroke="#8B1A2B" stroke-width="5" stroke-linecap="round" opacity="0.85"/>
</svg>
