<svg xmlns="http://www.w3.org/2000/svg" viewBox="0 0 120 120" fill="none" role="img" aria-label="Concordia Restaurant">
  <defs>
    <linearGradient id="crest-gold" x1="60" y1="8" x2="60" y2="112" gradientUnits="userSpaceOnUse">
      <stop stop-color="#d4af37"/>
      <stop offset="1" stop-color="#9a7b1a"/>
    </linearGradient>
    <linearGradient id="crest-wine" x1="60" y1="20" x2="60" y2="100" gradientUnits="userSpaceOnUse">
      <stop stop-color="#b81e36"/>
      <stop offset="1" stop-color="#7a1224"/>
    </linearGradient>
  </defs>
  <circle cx="60" cy="60" r="54" stroke="url(#crest-gold)" stroke-width="2" opacity="0.55"/>
  <circle cx="60" cy="60" r="46" stroke="#a31830" stroke-width="1.5" opacity="0.2"/>
  <path
    d="M34 78c6-18 16-28 26-32M86 78c-6-18-16-28-26-32"
    stroke="url(#crest-gold)"
    stroke-width="1.8"
    stroke-linecap="round"
    opacity="0.7"
  />
  <ellipse cx="60" cy="66" rx="22" ry="7" fill="#faf8f5" stroke="url(#crest-wine)" stroke-width="2.2"/>
  <ellipse cx="60" cy="63" rx="18" ry="5.5" fill="#fff" stroke="#a31830" stroke-width="1.2" opacity="0.35"/>
  <path
    d="M44 38v28c0 4 3.5 7 7 7M44 38c-3 0-5 2-5 4.5v6c0 2.5 2 4.5 5 4.5M76 38v28c0 4-3.5 7-7 7M76 38c3 0 5 2 5 4.5v6c0 2.5-2 4.5-5 4.5"
    stroke="url(#crest-wine)"
    stroke-width="2.4"
    stroke-linecap="round"
    stroke-linejoin="round"
  />
  <path
    d="M52 30c0-6 4-10 8-10s8 4 8 10"
    stroke="url(#crest-gold)"
    stroke-width="1.6"
    stroke-linecap="round"
  />
  <path
    d="M48 26c4-4 10-4 12 0M60 26c4-4 10-4 12 0"
    stroke="#2d6a4f"
    stroke-width="1.4"
    stroke-linecap="round"
    opacity="0.65"
  />
  <circle cx="60" cy="60" r="3" fill="url(#crest-gold)"/>
</svg>
