<svg xmlns="http://www.w3.org/2000/svg" viewBox="0 0 220 64" role="img" aria-label="Coming soon on the App Store">
  <rect width="220" height="64" rx="10" fill="#111"/>
  <g transform="translate(18 14) scale(1.45)">
    <path fill="#fff" d="M16.365 1.43c0 1.14-.45 2.21-1.17 3.01-.82.9-2.04 1.5-3.18 1.41-.14-1.09.42-2.24 1.14-3.01.83-.88 2.28-1.46 3.21-1.41ZM20.88 17.13c-.57 1.29-.85 1.87-1.58 3.01-1.03 1.58-2.48 3.55-4.28 3.57-1.6.02-2.01-1.04-4.18-1.03-2.17.01-2.62 1.05-4.22 1.03-1.8-.02-3.17-1.75-4.2-3.33C.98 18.56.2 15.86 1.66 13.5c1.03-1.72 2.66-2.76 4.22-2.76 1.66 0 2.7.96 4.07.96 1.31 0 2.1-.96 4.04-.96 1.44 0 2.96.79 3.99 2.15-3.51 1.91-2.94 6.87.9 8.24Z"/>
  </g>
  <text x="52" y="23" fill="#fff" font-family="system-ui, -apple-system, Segoe UI, sans-serif" font-size="10" opacity="0.82">Coming soon on the</text>
  <text x="52" y="41" fill="#fff" font-family="system-ui, -apple-system, Segoe UI, sans-serif" font-size="18" font-weight="700">App Store</text>
  <rect x="148" y="18" width="58" height="28" rx="14" fill="#fbbf24" fill-opacity="0.18"/>
  <text x="177" y="36" fill="#fbbf24" font-family="system-ui, -apple-system, Segoe UI, sans-serif" font-size="9" font-weight="700" text-anchor="middle" letter-spacing="0.08em">SOON</text>
</svg>
