<?xml version="1.0" encoding="UTF-8"?>
<svg xmlns="http://www.w3.org/2000/svg" viewBox="0 0 480 96" role="img" aria-label="Concordia Restaurant">
  <defs>
    <style>
      .wordmark { font-family: "Cormorant Garamond", Georgia, serif; font-size: 34px; font-style: italic; font-weight: 600; fill: #8B1A2B; }
      .subtitle { font-family: "DM Sans", Arial, sans-serif; font-size: 9px; font-weight: 700; letter-spacing: 0.28em; fill: #2d5a3d; }
    </style>
  </defs>
  <g transform="translate(4 8) scale(0.52)">
    <g transform="translate(0 0)">
      <circle cx="24" cy="52" r="14" fill="#f0c9a6"/><path d="M12 30 Q24 14 36 30 L34 40 Q24 28 14 40 Z" fill="#fff" stroke="#8B1A2B" stroke-width="1.5"/>
      <ellipse cx="24" cy="72" rx="16" ry="18" fill="#fff" stroke="#8B1A2B" stroke-width="1.5"/>
    </g>
    <g transform="translate(52 4)">
      <circle cx="24" cy="50" r="14" fill="#e8b896"/><path d="M12 28 Q24 12 36 28 L34 38 Q24 26 14 38 Z" fill="#fff" stroke="#8B1A2B" stroke-width="1.5"/>
      <ellipse cx="24" cy="70" rx="16" ry="18" fill="#fff" stroke="#8B1A2B" stroke-width="1.5"/>
    </g>
    <g transform="translate(104 -2)">
      <circle cx="24" cy="48" r="15" fill="#f0c9a6"/><rect x="16" y="44" width="16" height="5" rx="2" fill="none" stroke="#555" stroke-width="1"/>
      <path d="M10 26 Q24 8 38 26 L36 36 Q24 22 12 36 Z" fill="#fff" stroke="#8B1A2B" stroke-width="1.5"/>
      <ellipse cx="24" cy="68" rx="17" ry="19" fill="#fff" stroke="#8B1A2B" stroke-width="1.5"/>
    </g>
    <g transform="translate(156 4)">
      <circle cx="24" cy="50" r="14" fill="#ddb08a"/><path d="M12 28 Q24 12 36 28 L34 38 Q24 26 14 38 Z" fill="#fff" stroke="#8B1A2B" stroke-width="1.5"/>
      <ellipse cx="24" cy="70" rx="16" ry="18" fill="#fff" stroke="#8B1A2B" stroke-width="1.5"/>
    </g>
    <g transform="translate(208 0)">
      <circle cx="24" cy="52" r="14" fill="#f0c9a6"/><path d="M12 30 Q24 14 36 30 L34 40 Q24 28 14 40 Z" fill="#fff" stroke="#8B1A2B" stroke-width="1.5"/>
      <ellipse cx="24" cy="72" rx="16" ry="18" fill="#fff" stroke="#8B1A2B" stroke-width="1.5"/>
    </g>
  </g>
  <text x="148" y="52" class="wordmark">Concordia</text>
  <text x="148" y="68" class="subtitle">RESTAURANT</text>
</svg>
