<svg xmlns="http://www.w3.org/2000/svg" viewBox="0 0 220 64" role="img" aria-label="Coming soon on Google Play">
  <defs>
    <linearGradient id="gp-bg" x1="0" y1="0" x2="1" y2="1">
      <stop offset="0%" stop-color="#151515"/>
      <stop offset="100%" stop-color="#0f3d31"/>
    </linearGradient>
  </defs>
  <rect width="220" height="64" rx="10" fill="url(#gp-bg)"/>
  <g transform="translate(16 14)">
    <path fill="#34A853" d="M4 2.5v19l10.6-9.5L4 2.5Z"/>
    <path fill="#FBBC04" d="M16.2 11.2 20.8 8.2c.5-.3 1.2.1 1.2.7v6.2c0 .6-.7 1-1.2.7l-4.6-3-1.2-1.1 1.2-1.1Z"/>
    <path fill="#4285F4" d="M16.2 11.2 20.8 14.2c.5.3.5 1.1 0 1.4l-4.6 3-1.2-1.1 1.2-1.1 4.6-3.2c.5-.3.5-1.1 0-1.4l-4.6-3.2-1.2 1.1 1.2 1.1Z"/>
    <path fill="#EA4335" d="M4 2.5l10.6 9.5 1.6 1.4-1.6 1.4L4 21.5V2.5Z"/>
  </g>
  <text x="52" y="23" fill="#fff" font-family="system-ui, -apple-system, Segoe UI, sans-serif" font-size="10" opacity="0.82">Coming soon on</text>
  <text x="52" y="41" fill="#fff" font-family="system-ui, -apple-system, Segoe UI, sans-serif" font-size="18" font-weight="700">Google Play</text>
  <rect x="148" y="18" width="58" height="28" rx="14" fill="#34d399" fill-opacity="0.16"/>
  <text x="177" y="36" fill="#6ee7b7" font-family="system-ui, -apple-system, Segoe UI, sans-serif" font-size="9" font-weight="700" text-anchor="middle" letter-spacing="0.08em">SOON</text>
</svg>
