<svg xmlns="http://www.w3.org/2000/svg" viewBox="0 0 24 24" aria-hidden="true">
  <path fill="#34A853" d="M4 2.5v19l10.6-9.5L4 2.5Z"/>
  <path fill="#FBBC04" d="M16.2 11.2 20.8 8.2c.5-.3 1.2.1 1.2.7v6.2c0 .6-.7 1-1.2.7l-4.6-3-1.2-1.1 1.2-1.1Z"/>
  <path fill="#4285F4" d="M16.2 11.2 20.8 14.2c.5.3.5 1.1 0 1.4l-4.6 3-1.2-1.1 1.2-1.1 4.6-3.2c.5-.3.5-1.1 0-1.4l-4.6-3.2 1.2-1.1 4.6 3Z" opacity="0"/>
  <path fill="#4285F4" d="M14.6 12.8l1.6 1.4 4.6-3.2c.5-.3.5-1.1 0-1.4l-4.6-3.2-1.6 1.4 1.6 1.4Z"/>
  <path fill="#EA4335" d="M4 2.5l10.6 9.5L14.6 12.8l-1.6 1.4L4 21.5V2.5Z"/>
</svg>
